<svg width="161" height="130" viewBox="0 0 161 130" fill="none" xmlns="http://www.w3.org/2000/svg">
<path d="M123.778 112.601H60.8997C50.2198 112.601 41.5615 105.205 41.5615 96.0816V16.519C41.5615 7.39602 50.2198 0 60.8997 0H101.282C105.152 0 108.857 1.33167 111.562 3.69629C117.826 9.16891 129.613 19.4627 136.874 25.8028C140.876 29.2968 143.115 33.9904 143.115 38.8782V96.0816C143.115 105.205 134.457 112.601 123.777 112.601H123.778Z" fill="black"/>
<path d="M51.8636 56.699C51.8636 49.9579 51.8676 43.2179 51.8622 36.4768C51.8569 30.3424 51.8353 24.208 51.8313 18.0724C51.83 16.0146 52.2604 14.0429 53.7346 12.3527C55.5706 10.2489 57.9729 8.85178 61.1016 8.76561C65.6453 8.63922 70.1957 8.65301 74.7434 8.64152C82.2059 8.62313 89.6697 8.63118 97.1322 8.63577C97.6891 8.63577 98.25 8.67254 98.8028 8.73343C99.9986 8.86327 100.847 9.41938 101.415 10.3236C102.195 11.5691 102.452 12.9192 102.46 14.3014C102.49 19.2214 102.479 24.1402 102.507 29.0601C102.511 29.7633 102.595 30.4734 102.732 31.1674C103.177 33.4286 105.047 34.5374 107.592 34.5787C113.724 34.6764 119.857 34.6672 125.991 34.7177C127.538 34.7304 129.051 34.9073 130.477 35.4899C132.11 36.1574 132.863 37.2639 132.866 38.7783C132.875 44.3876 132.882 49.997 132.888 55.6052C132.903 68.4658 132.917 81.3264 132.93 94.187C132.932 95.7599 132.746 97.303 132.006 98.7691C130.79 101.18 128.661 102.715 125.78 103.524C123.652 104.121 121.442 103.935 119.26 103.953C115.861 103.981 112.462 103.963 109.063 103.96C105.282 103.958 101.501 103.946 97.7214 103.948C90.6301 103.95 83.5389 103.968 76.449 103.959C71.4829 103.952 66.5115 104.008 61.5509 103.853C56.8242 103.705 53.0876 101.164 52.1783 97.0927C51.9577 96.1081 51.8663 95.0878 51.8622 94.0835C51.8353 87.6148 51.8488 81.1448 51.8501 74.676C51.8501 68.6841 51.8501 62.6921 51.8501 56.7001H51.8636V56.699ZM92.4554 77.9702V77.9943H89.8392C82.7439 77.9943 75.65 77.9897 68.5547 78C67.7543 78.0012 66.9433 78.0334 66.1551 78.1425C63.7312 78.478 62.1951 80.0292 62.0337 82.2364C61.9059 83.9966 63.4474 85.8488 65.5471 86.3635C66.2465 86.5347 66.9957 86.6335 67.7221 86.6347C83.4972 86.6519 99.2736 86.6531 115.049 86.6485C116.516 86.6485 118.005 86.7703 119.427 86.3038C121.137 85.7431 122.285 84.7285 122.613 83.1808C122.952 81.5814 122.531 80.1486 120.983 79.0617C119.798 78.2287 118.399 77.9771 116.925 77.9759C108.769 77.9667 100.612 77.9713 92.4554 77.9713V77.9702ZM92.3801 43.3282C84.2423 43.3282 76.106 43.326 67.9682 43.3328C67.367 43.3328 66.7603 43.3708 66.1671 43.4489C63.2201 43.8361 61.3881 46.3328 62.2395 48.7721C62.9511 50.807 64.8046 51.9445 67.4262 51.9445C83.789 51.9445 100.152 51.9456 116.515 51.941C117.116 51.941 117.721 51.8997 118.319 51.8365C121.441 51.5067 123.359 49.0663 122.545 46.4788C121.944 44.5703 119.895 43.3282 117.33 43.3282C109.013 43.3271 100.697 43.3282 92.3801 43.3282ZM87.406 60.6791C87.406 60.6791 87.406 60.6745 87.406 60.6722C82.3861 60.6722 77.3677 60.6607 72.3478 60.6779C70.3127 60.6848 68.2682 60.6527 66.2465 60.8124C62.5718 61.1042 60.9657 64.9165 62.7843 67.2708C63.9424 68.7691 65.6923 69.2896 67.6898 69.2907C80.7559 69.2999 93.822 69.2953 106.887 69.2953C107.066 69.2953 107.246 69.2999 107.425 69.2873C109.65 69.123 111.416 68.3681 112.297 66.4964C113.307 64.3512 111.94 60.7227 107.44 60.6906C100.761 60.6435 94.083 60.6779 87.4046 60.6779L87.406 60.6791Z" fill="white"/>
<path d="M74.7877 33.7779C72.1043 33.7779 69.4155 33.8618 66.7388 33.7538C64.1064 33.6481 62.0444 31.8833 61.9866 29.9162C61.9113 27.3678 63.5563 25.5524 66.4281 25.2996C68.4094 25.1249 70.4283 25.1927 72.4298 25.1847C75.6136 25.1709 78.7988 25.1364 81.9812 25.1996C86.2142 25.2835 88.6609 28.8545 86.4913 31.7385C85.578 32.953 84.2194 33.7285 82.4022 33.7676C79.8668 33.8216 77.3272 33.7814 74.7891 33.7814C74.7891 33.7814 74.7891 33.7791 74.7891 33.7779H74.7877Z" fill="black"/>
<path d="M145.45 83.4164H120.472C112.401 83.4164 105.858 89.0055 105.858 95.9001V117.237C105.858 124.131 112.401 129.721 120.472 129.721H145.45C153.522 129.721 160.065 124.131 160.065 117.237V95.9001C160.065 89.0055 153.522 83.4164 145.45 83.4164Z" fill="white"/>
<path d="M74.7932 29.5289H8.33276C3.7307 29.5289 0 32.7158 0 36.6469V55.7315C0 59.6627 3.7307 62.8495 8.33276 62.8495H74.7932C79.3952 62.8495 83.1259 59.6627 83.1259 55.7315V36.6469C83.1259 32.7158 79.3952 29.5289 74.7932 29.5289Z" fill="white"/>
<path d="M75.6916 33.0908H7.56871C5.76577 33.0908 4.3042 34.3393 4.3042 35.8794V56.4991C4.3042 58.0392 5.76577 59.2877 7.56871 59.2877H75.6916C77.4946 59.2877 78.9561 58.0392 78.9561 56.4991V35.8794C78.9561 34.3393 77.4946 33.0908 75.6916 33.0908Z" fill="black"/>
<path d="M14.0439 47.105V44.6232H18.1357V41.1487H21.0411V44.6232H25.1812V47.105H21.0411V50.6209H18.1357V47.105H14.0439Z" fill="white"/>
<path d="M28.7161 46.8154V44.2922H35.8827V46.8154H28.7161Z" fill="white"/>
<path d="M42.9026 40.7144H46.3648L48.3018 43.92L50.2629 40.7144H53.7251L50.2871 45.7814L53.7251 51.0552H50.2629L48.3018 47.8909L46.3648 51.0552H42.9026L46.2196 45.8641L42.9026 40.7144Z" fill="white"/>
<path d="M60.7708 44.9542V42.4517H71.5206V44.9542H60.7708ZM60.7708 49.256V46.7535H71.5206V49.256H60.7708Z" fill="white"/>
<path d="M111.716 120.892C112.02 119.846 112.688 118.984 113.57 118.233C113.977 117.887 114.387 117.546 114.792 117.199C118.372 114.138 121.952 111.075 125.532 108.015C126.092 107.537 126.665 107.069 127.224 106.589C128.467 105.523 129.967 105.195 131.666 105.469C132.01 105.524 132.271 105.464 132.513 105.259C133.736 104.213 134.964 103.172 136.187 102.129C136.491 101.869 136.492 101.795 136.212 101.498C135.388 100.62 134.691 99.6756 134.118 98.6622C134.034 98.5151 134.055 98.4313 134.188 98.3187C136.418 96.4343 138.648 94.55 140.867 92.6564C141.389 92.2106 141.883 91.7384 142.369 91.2627C142.51 91.1248 142.607 91.1214 142.783 91.1984C146.705 92.9127 149.738 95.4117 151.868 98.7082C152.225 99.2631 152.221 99.2643 151.685 99.7193C149.239 101.798 146.791 103.873 144.353 105.957C144.084 106.187 143.871 106.465 143.624 106.73C142.422 106.179 141.241 105.601 140.172 104.872C139.761 104.592 139.746 104.586 139.376 104.902C138.136 105.958 136.898 107.015 135.677 108.088C135.546 108.202 135.452 108.433 135.489 108.585C135.919 110.382 135.139 111.788 133.662 113.021C131.636 114.712 129.655 116.443 127.647 118.149C125.114 120.303 122.587 122.462 120.03 124.596C118.67 125.732 117.008 126.047 115.21 125.579C113.379 125.104 112.28 123.99 111.83 122.406C111.807 122.326 111.755 122.252 111.716 122.175C111.716 121.748 111.716 121.32 111.716 120.893V120.892Z" fill="black"/>
<path d="M139.362 88.0858C140.293 88.3328 140.998 88.8085 141.395 89.5818C141.761 90.2942 141.642 90.8296 141.006 91.3788C140.039 92.2118 139.065 93.0414 138.091 93.8698C136.882 94.8993 135.677 95.9345 134.451 96.9502C134.166 97.1869 133.807 97.357 133.482 97.5569C133.188 97.7373 132.884 97.712 132.564 97.6075C131.534 97.2697 130.797 96.6917 130.471 95.7714C130.29 95.2543 130.434 94.8085 130.879 94.4294C132.937 92.676 134.995 90.9238 137.051 89.1705C137.229 89.0199 137.413 88.8763 137.583 88.7189C137.889 88.434 138.234 88.2007 138.674 88.087H139.362V88.0858Z" fill="black"/>
<path d="M155.759 102.455C155.78 102.848 155.556 103.141 155.253 103.399C153.258 105.103 151.261 106.806 149.265 108.51C148.956 108.774 148.649 109.041 148.34 109.305C147.935 109.652 147.456 109.799 146.888 109.673C145.753 109.42 144.974 108.834 144.647 107.861C144.456 107.291 144.708 106.815 145.183 106.412C146.658 105.156 148.135 103.9 149.608 102.641C150.373 101.987 151.129 101.324 151.895 100.669C152.563 100.096 153.19 100.017 154.048 100.367C155.084 100.79 155.677 101.469 155.759 102.455Z" fill="black"/>
</svg>
