<svg width="142" height="130" viewBox="0 0 142 130" fill="none" xmlns="http://www.w3.org/2000/svg">
<path d="M105.485 112.601H42.6067C31.9268 112.601 23.2686 105.205 23.2686 96.0816V16.519C23.2686 7.39602 31.9268 0 42.6067 0H82.9887C86.8585 0 90.5642 1.33167 93.2692 3.69629C99.5332 9.16891 111.32 19.4627 118.581 25.8028C122.582 29.2968 124.822 33.9904 124.822 38.8782V96.0816C124.822 105.205 116.164 112.601 105.484 112.601H105.485Z" fill="black"/>
<path d="M33.5704 56.699C33.5704 49.9579 33.5744 43.2179 33.569 36.4768C33.5636 30.3424 33.5421 24.208 33.5381 18.0724C33.5367 16.0146 33.9672 14.0429 35.4414 12.3527C37.2775 10.2489 39.6797 8.85178 42.8084 8.76561C47.3521 8.63922 51.9025 8.65301 56.4502 8.64152C63.9127 8.62313 71.3765 8.63118 78.8391 8.63577C79.3959 8.63577 79.9568 8.67254 80.5096 8.73343C81.7054 8.86327 82.5542 9.41938 83.1218 10.3236C83.902 11.5691 84.1589 12.9192 84.167 14.3014C84.1966 19.2214 84.1857 24.1402 84.214 29.0601C84.218 29.7633 84.3014 30.4734 84.4386 31.1674C84.8838 33.4286 86.7535 34.5374 89.2984 34.5787C95.4306 34.6764 101.564 34.6672 107.698 34.7177C109.245 34.7304 110.758 34.9073 112.184 35.4899C113.816 36.1574 114.57 37.2639 114.572 38.7783C114.582 44.3876 114.589 49.997 114.595 55.6052C114.61 68.4658 114.624 81.3264 114.637 94.187C114.638 95.7599 114.453 97.303 113.713 98.7691C112.497 101.18 110.368 102.715 107.487 103.524C105.359 104.121 103.149 103.935 100.967 103.953C97.568 103.981 94.169 103.963 90.7699 103.96C86.9889 103.958 83.2079 103.946 79.4282 103.948C72.3369 103.95 65.2457 103.968 58.1558 103.959C53.1897 103.952 48.2183 104.008 43.2577 103.853C38.5311 103.705 34.7944 101.164 33.8851 97.0927C33.6645 96.1081 33.5731 95.0878 33.569 94.0835C33.5421 87.6148 33.5556 81.1448 33.5569 74.676C33.5569 68.6841 33.5569 62.6921 33.5569 56.7001H33.5704V56.699ZM74.1622 77.9702V77.9943H71.5461C64.4508 77.9943 57.3568 77.9897 50.2615 78C49.4612 78.0012 48.6501 78.0334 47.8619 78.1425C45.438 78.478 43.9019 80.0292 43.7405 82.2364C43.6128 83.9966 45.1542 85.8488 47.2539 86.3635C47.9533 86.5347 48.7025 86.6335 49.4289 86.6347C65.204 86.6519 80.9804 86.6531 96.7555 86.6485C98.223 86.6485 99.712 86.7703 101.134 86.3038C102.843 85.7431 103.992 84.7285 104.32 83.1808C104.659 81.5814 104.238 80.1486 102.69 79.0617C101.505 78.2287 100.106 77.9771 98.6319 77.9759C90.4753 77.9667 82.3188 77.9713 74.1622 77.9713V77.9702ZM74.0869 43.3282C65.9491 43.3282 57.8128 43.326 49.675 43.3328C49.0738 43.3328 48.4671 43.3708 47.874 43.4489C44.9269 43.8361 43.0949 46.3328 43.9464 48.7721C44.6579 50.807 46.5114 51.9445 49.1329 51.9445C65.4958 51.9445 81.8588 51.9456 98.2217 51.941C98.8229 51.941 99.4282 51.8997 100.025 51.8365C103.147 51.5067 105.065 49.0663 104.252 46.4788C103.65 44.5703 101.602 43.3282 99.0368 43.3282C90.7202 43.3271 82.4035 43.3282 74.0869 43.3282ZM69.1128 60.6791C69.1128 60.6791 69.1128 60.6745 69.1128 60.6722C64.0929 60.6722 59.0745 60.6607 54.0546 60.6779C52.0195 60.6848 49.975 60.6527 47.9533 60.8124C44.2785 61.1042 42.6726 64.9165 44.4911 67.2708C45.6492 68.7691 47.3992 69.2896 49.3966 69.2907C62.4627 69.2999 75.5288 69.2953 88.5936 69.2953C88.7725 69.2953 88.9527 69.2999 89.1316 69.2873C91.3564 69.123 93.1225 68.3681 94.0035 66.4964C95.0137 64.3512 93.647 60.7227 89.1464 60.6906C82.4681 60.6435 75.7898 60.6779 69.1115 60.6779L69.1128 60.6791Z" fill="white"/>
<path d="M56.4948 33.7779C53.8113 33.7779 51.1225 33.8618 48.4458 33.7538C45.8135 33.6481 43.7515 31.8833 43.6936 29.9162C43.6183 27.3678 45.2634 25.5524 48.1351 25.2996C50.1164 25.1249 52.1354 25.1927 54.1369 25.1847C57.3207 25.1709 60.5058 25.1364 63.6883 25.1996C67.9213 25.2835 70.3679 28.8545 68.1983 31.7385C67.285 32.953 65.9265 33.7285 64.1093 33.7676C61.5738 33.8216 59.0343 33.7814 56.4961 33.7814C56.4961 33.7814 56.4961 33.7791 56.4961 33.7779H56.4948Z" fill="black"/>
<path d="M74.7931 29.5289H8.3328C3.73073 29.5289 0 32.7158 0 36.6469V55.7315C0 59.6627 3.73073 62.8495 8.3328 62.8495H74.7931C79.3952 62.8495 83.1259 59.6627 83.1259 55.7315V36.6469C83.1259 32.7158 79.3952 29.5289 74.7931 29.5289Z" fill="white"/>
<path d="M127.157 83.4164H102.179C94.1077 83.4164 87.5647 89.0055 87.5647 95.9001V117.237C87.5647 124.131 94.1077 129.721 102.179 129.721H127.157C135.228 129.721 141.771 124.131 141.771 117.237V95.9001C141.771 89.0055 135.228 83.4164 127.157 83.4164Z" fill="white"/>
<path d="M75.6916 33.0908H7.56871C5.76577 33.0908 4.3042 34.3393 4.3042 35.8794V56.4991C4.3042 58.0392 5.76577 59.2877 7.56871 59.2877H75.6916C77.4946 59.2877 78.9561 58.0392 78.9561 56.4991V35.8794C78.9561 34.3393 77.4946 33.0908 75.6916 33.0908Z" fill="black"/>
<path d="M26.5398 53.1256C24.8288 53.4428 23.2874 53.6013 21.9154 53.6013C20.5434 53.6013 19.4458 53.4566 18.6226 53.167C17.7994 52.8775 17.1538 52.4156 16.6857 51.7813C16.2176 51.1471 15.8948 50.4026 15.7173 49.5477C15.5397 48.6929 15.4509 47.6174 15.4509 46.3214C15.4509 43.6052 15.8988 41.7128 16.7946 40.6442C17.6905 39.5757 19.3409 39.0414 21.7459 39.0414C23.134 39.0414 24.7401 39.2275 26.564 39.5998L26.4671 41.8748C24.8692 41.668 23.5416 41.5646 22.4844 41.5646C21.4271 41.5646 20.6725 41.6852 20.2206 41.9265C19.7686 42.1678 19.4337 42.6262 19.2158 43.3018C18.9979 43.9774 18.889 45.1287 18.889 46.7557C18.889 48.3826 19.1109 49.5098 19.5547 50.1371C19.9986 50.7645 20.8864 51.0782 22.218 51.0782C23.5497 51.0782 24.966 50.9816 26.4671 50.7886L26.5398 53.1256Z" fill="white"/>
<path d="M29.2515 53.3531V39.2896H39.7592V41.7714H32.5926V45.9077H38.4518V48.3895H32.5926V53.3531H29.2515Z" fill="white"/>
<path d="M47.6521 53.3531H42.1077V39.2896H47.6521C49.0725 39.2896 50.2428 39.4171 51.1628 39.6722C52.0828 39.9272 52.797 40.3478 53.3055 40.9337C53.8139 41.5197 54.165 42.2091 54.3587 43.0019C54.5524 43.7947 54.6492 44.8254 54.6492 46.0938C54.6492 47.3623 54.5605 48.4136 54.3829 49.2478C54.2053 50.082 53.8704 50.8265 53.3781 51.4814C52.8858 52.1364 52.1716 52.612 51.2354 52.9085C50.2993 53.2049 49.1048 53.3531 47.6521 53.3531ZM51.1628 47.7691C51.1951 47.3279 51.2112 46.7177 51.2112 45.9387C51.2112 45.1597 51.1789 44.5358 51.1143 44.067C51.0498 43.5982 50.8964 43.1708 50.6543 42.7848C50.4122 42.3987 50.0531 42.1333 49.5769 41.9885C49.1008 41.8437 48.4592 41.7714 47.6521 41.7714H45.4489V50.8713H47.6521C48.8627 50.8713 49.7424 50.6094 50.2912 50.0854C50.7593 49.658 51.0498 48.8859 51.1628 47.7691Z" fill="white"/>
<path d="M57.5547 53.3531V39.2896H60.8958V53.3531H57.5547Z" fill="white"/>
<path d="M108.376 124.55C107.709 123.041 107.041 121.534 106.376 120.025C105.975 119.119 105.778 119.045 104.69 119.416C103.24 119.912 101.792 120.41 100.34 120.902C100.051 121 99.7497 121.074 99.1929 121.235C101.037 116.998 102.784 112.979 104.57 108.876C107.456 110.712 110.641 111.673 114.161 111.678C117.697 111.683 120.889 110.714 123.843 108.878C125.616 112.95 127.372 116.984 129.129 121.018C129.07 121.074 129.011 121.13 128.953 121.186C128.054 120.887 127.152 120.594 126.256 120.287C125.337 119.973 124.42 119.654 123.512 119.32C122.826 119.067 122.404 119.179 122.14 119.828C121.601 121.159 120.999 122.473 120.413 123.791C120.296 124.053 120.13 124.298 119.986 124.551H119.805C118.714 122.084 117.62 119.62 116.534 117.152C115.776 115.431 115.03 113.706 114.207 111.818C113.116 114.321 112.112 116.647 111.085 118.967C110.257 120.833 109.402 122.691 108.559 124.552H108.377L108.376 124.55Z" fill="black"/>
<path d="M114.282 109.387C106.903 109.385 101.09 104.46 101.077 98.1383C101.067 92.0786 106.669 86.9759 114.183 86.9437C121.408 86.9127 127.341 92.02 127.389 98.1061C127.436 104.268 121.486 109.389 114.282 109.387ZM114.274 106.421C119.415 106.439 123.84 102.87 123.877 98.1486C123.91 93.6607 119.566 89.9736 114.196 89.9047C109.026 89.838 104.569 93.6228 104.556 98.0901C104.542 102.75 108.824 106.421 114.274 106.421Z" fill="black"/>
<path d="M121.253 98.2486C121.245 101.437 117.986 104.266 114.263 104.192C110.309 104.114 107.193 101.782 107.181 98.1912C107.168 94.5891 110.481 92.1912 114.246 92.1716C118.09 92.1509 121.263 94.9211 121.255 98.2486H121.253Z" fill="black"/>
</svg>
