<svg width="97" height="88" viewBox="0 0 97 88" fill="none" xmlns="http://www.w3.org/2000/svg">
<path d="M60.97 10.6678H9.03C4.04287 10.6678 0 14.1181 0 18.3743V79.7696C0 84.0257 4.04287 87.476 9.03 87.476H60.97C65.9571 87.476 70 84.0257 70 79.7696V18.3743C70 14.1181 65.9571 10.6678 60.97 10.6678Z" fill="url(#paint0_linear_645_1813)"/>
<path d="M73.47 0H21.53C16.5429 0 12.5 3.45028 12.5 7.70642V69.1018C12.5 73.3579 16.5429 76.8082 21.53 76.8082H73.47C78.4571 76.8082 82.5 73.3579 82.5 69.1018V7.70642C82.5 3.45028 78.4571 0 73.47 0Z" fill="url(#paint1_linear_645_1813)"/>
<path d="M67 20.9089C71.9706 20.9089 76 17.4701 76 13.2281C76 8.98606 71.9706 5.54724 67 5.54724C62.0294 5.54724 58 8.98606 58 13.2281C58 17.4701 62.0294 20.9089 67 20.9089Z" fill="#FFF4E3"/>
<path d="M55 56.7527C59.9706 56.7527 64 53.3139 64 49.0719C64 44.8299 59.9706 41.3911 55 41.3911C50.0294 41.3911 46 44.8299 46 49.0719C46 53.3139 50.0294 56.7527 55 56.7527Z" fill="#FFF4E3"/>
<path d="M79 56.7527C83.9706 56.7527 88 53.3139 88 49.0719C88 44.8299 83.9706 41.3911 79 41.3911C74.0294 41.3911 70 44.8299 70 49.0719C70 53.3139 74.0294 56.7527 79 56.7527Z" fill="#FFF4E3"/>
<path d="M46 36.2706C50.9706 36.2706 55 32.8318 55 28.5898C55 24.3478 50.9706 20.9089 46 20.9089C41.0294 20.9089 37 24.3478 37 28.5898C37 32.8318 41.0294 36.2706 46 36.2706Z" fill="#FFF4E3"/>
<path d="M88 36.2706C92.9706 36.2706 97 32.8318 97 28.5898C97 24.3478 92.9706 20.9089 88 20.9089C83.0294 20.9089 79 24.3478 79 28.5898C79 32.8318 83.0294 36.2706 88 36.2706Z" fill="#FFF4E3"/>
<defs>
<linearGradient id="paint0_linear_645_1813" x1="19.93" y1="27.7449" x2="56.4504" y2="98.7104" gradientUnits="userSpaceOnUse">
<stop stop-color="white" stop-opacity="0.3"/>
<stop offset="1" stop-color="white"/>
</linearGradient>
<linearGradient id="paint1_linear_645_1813" x1="32.43" y1="17.077" x2="68.9504" y2="88.0425" gradientUnits="userSpaceOnUse">
<stop stop-color="#FFA94C"/>
<stop offset="0.66" stop-color="#FFCF43"/>
</linearGradient>
</defs>
</svg>
