<svg width="89" height="81" viewBox="0 0 89 81" fill="none" xmlns="http://www.w3.org/2000/svg">
<path d="M51 80.2219C55.9706 80.2219 60 76.783 60 72.541C60 68.299 55.9706 64.8602 51 64.8602C46.0294 64.8602 42 68.299 42 72.541C42 76.783 46.0294 80.2219 51 80.2219Z" fill="url(#paint0_linear_739_166)"/>
<path d="M50.5 7.68082C52.9853 7.68082 55 5.96141 55 3.84041C55 1.71941 52.9853 0 50.5 0C48.0147 0 46 1.71941 46 3.84041C46 5.96141 48.0147 7.68082 50.5 7.68082Z" fill="url(#paint1_linear_739_166)"/>
<path d="M51 4.26709C67.56 4.26709 81 15.7371 81 29.8698V65.7136H21V29.8698C21 15.7371 34.44 4.26709 51 4.26709Z" fill="url(#paint2_linear_739_166)"/>
<path d="M85 65.7136H17C14.7909 65.7136 13 67.242 13 69.1273C13 71.0127 14.7909 72.541 17 72.541H85C87.2091 72.541 89 71.0127 89 69.1273C89 67.242 87.2091 65.7136 85 65.7136Z" fill="url(#paint3_linear_739_166)"/>
<path d="M21 58.0329C32.598 58.0329 42 50.009 42 40.111C42 30.213 32.598 22.1891 21 22.1891C9.40202 22.1891 0 30.213 0 40.111C0 50.009 9.40202 58.0329 21 58.0329Z" fill="#FFF4E3"/>
<defs>
<linearGradient id="paint0_linear_739_166" x1="42" y1="72.541" x2="60" y2="72.541" gradientUnits="userSpaceOnUse">
<stop stop-color="white" stop-opacity="0.3"/>
<stop offset="1"/>
</linearGradient>
<linearGradient id="paint1_linear_739_166" x1="46" y1="3.84041" x2="55" y2="3.84041" gradientUnits="userSpaceOnUse">
<stop stop-color="white" stop-opacity="0.3"/>
<stop offset="1" stop-color="white"/>
</linearGradient>
<linearGradient id="paint2_linear_739_166" x1="21" y1="34.9904" x2="81" y2="34.9904" gradientUnits="userSpaceOnUse">
<stop stop-color="#FFA94C"/>
<stop offset="0.66" stop-color="#FFCF43"/>
</linearGradient>
<linearGradient id="paint3_linear_739_166" x1="13" y1="69.1273" x2="89" y2="69.1273" gradientUnits="userSpaceOnUse">
<stop stop-color="#FFA94C"/>
<stop offset="0.66" stop-color="#FFCF43"/>
</linearGradient>
</defs>
</svg>
