<svg width="100" height="100" viewBox="0 0 100 100" fill="none" xmlns="http://www.w3.org/2000/svg">
<path d="M95.4341 24.2383C94.3404 19.6094 91.1286 15.9766 87.0487 14.7461C79.6529 12.5 50.0001 12.5 50.0001 12.5C50.0001 12.5 20.3473 12.5 12.9515 14.7461C8.87164 15.9766 5.65983 19.6094 4.56608 24.2383C2.58691 32.6172 2.58691 50.0781 2.58691 50.0781C2.58691 50.0781 2.58691 67.5391 4.56608 75.918C5.65983 80.5469 8.87164 84.0234 12.9515 85.2539C20.3473 87.5 50.0001 87.5 50.0001 87.5C50.0001 87.5 79.6529 87.5 87.0487 85.2539C91.1286 84.0234 94.3404 80.5273 95.4341 75.918C97.4133 67.5391 97.4133 50.0781 97.4133 50.0781C97.4133 50.0781 97.4133 32.6172 95.4341 24.2383ZM40.3126 65.9375V34.2188L65.0869 50.0781L40.3126 65.9375Z" fill="black"/>
</svg>
