<svg width="96" height="88" viewBox="0 0 96 88" fill="none" xmlns="http://www.w3.org/2000/svg">
<path d="M60.97 10.6678H9.03C4.04287 10.6678 0 14.1181 0 18.3743V79.7696C0 84.0257 4.04287 87.476 9.03 87.476H60.97C65.9571 87.476 70 84.0257 70 79.7696V18.3743C70 14.1181 65.9571 10.6678 60.97 10.6678Z" fill="url(#paint0_linear_743_209)"/>
<path d="M73.47 0H21.53C16.5429 0 12.5 3.45028 12.5 7.70642V69.1018C12.5 73.3579 16.5429 76.8082 21.53 76.8082H73.47C78.4571 76.8082 82.5 73.3579 82.5 69.1018V7.70642C82.5 3.45028 78.4571 0 73.47 0Z" fill="url(#paint1_linear_743_209)"/>
<g clip-path="url(#clip0_743_209)">
<path d="M67 7C51.5603 7 39 19.5603 39 35C39 50.4397 51.5603 63 67 63C82.4397 63 95 50.4397 95 35C95 19.5603 82.4397 7 67 7ZM76.3333 37.3333H67C65.712 37.3333 64.6667 36.2903 64.6667 35V21C64.6667 19.7097 65.712 18.6667 67 18.6667C68.288 18.6667 69.3333 19.7097 69.3333 21V32.6667H76.3333C77.6237 32.6667 78.6667 33.7097 78.6667 35C78.6667 36.2903 77.6237 37.3333 76.3333 37.3333Z" fill="#FFF4E3"/>
</g>
<defs>
<linearGradient id="paint0_linear_743_209" x1="19.93" y1="27.7449" x2="56.4504" y2="98.7104" gradientUnits="userSpaceOnUse">
<stop stop-color="white" stop-opacity="0.3"/>
<stop offset="1"/>
</linearGradient>
<linearGradient id="paint1_linear_743_209" x1="32.43" y1="17.077" x2="68.9504" y2="88.0425" gradientUnits="userSpaceOnUse">
<stop stop-color="#FFA94C"/>
<stop offset="0.66" stop-color="#FFCF43"/>
</linearGradient>
<clipPath id="clip0_743_209">
<rect width="56" height="56" fill="white" transform="translate(39 7)"/>
</clipPath>
</defs>
</svg>
