<svg width="100" height="100" viewBox="0 0 100 100" fill="none" xmlns="http://www.w3.org/2000/svg">
<path d="M85.0223 18.9648C75.6696 10.7617 63.2143 6.25 49.9777 6.25C22.6562 6.25 0.424107 25.7031 0.424107 49.6094C0.424107 57.2461 2.70089 64.707 7.03125 71.2891L0 93.75L26.2723 87.7148C33.5045 91.1719 41.6518 92.9883 49.9554 92.9883H49.9777C77.2768 92.9883 100 73.5352 100 49.6289C100 38.0469 94.375 27.168 85.0223 18.9648ZM49.9777 85.6836C42.567 85.6836 35.3125 83.9453 28.9955 80.6641L27.5 79.8828L11.9196 83.457L16.0714 70.1563L15.0893 68.7891C10.9598 63.0469 8.79464 56.4258 8.79464 49.6094C8.79464 29.7461 27.2768 13.5742 50 13.5742C61.0045 13.5742 71.3393 17.3242 79.1071 24.1406C86.875 30.957 91.6518 40 91.6295 49.6289C91.6295 69.5117 72.6786 85.6836 49.9777 85.6836ZM72.567 58.6914C71.3393 58.1445 65.2455 55.5273 64.1071 55.1758C62.9688 54.8047 62.1429 54.6289 61.317 55.7227C60.4911 56.8164 58.125 59.2383 57.3884 59.9805C56.6741 60.7031 55.9375 60.8008 54.7098 60.2539C47.433 57.0703 42.6562 54.5703 37.8571 47.3633C36.5848 45.4492 39.1295 45.5859 41.4955 41.4453C41.8973 40.7227 41.6964 40.0977 41.3839 39.5508C41.0714 39.0039 38.5938 33.6719 37.567 31.5039C36.5625 29.3945 35.5357 29.6875 34.7768 29.6484C34.0625 29.6094 33.2366 29.6094 32.4107 29.6094C31.5848 29.6094 30.2455 29.8828 29.1071 30.957C27.9687 32.0508 24.7768 34.668 24.7768 40C24.7768 45.332 29.2188 50.4883 29.8214 51.2109C30.4464 51.9336 38.5491 62.8711 50.9821 67.5781C58.8393 70.5469 61.9196 70.8008 65.8482 70.293C68.2366 69.9805 73.1696 67.6758 74.1964 65.1367C75.2232 62.5977 75.2232 60.4297 74.9107 59.9805C74.6205 59.4922 73.7946 59.2188 72.567 58.6914Z" fill="black"/>
</svg>
