<svg width="107" height="105" viewBox="0 0 107 105" fill="none" xmlns="http://www.w3.org/2000/svg">
<path d="M29.7927 104.118H73.1527C81.0627 104.118 85.7427 97.8109 81.2727 93.1683L56.9827 67.907C55.1527 66.0038 52.1127 64.8602 48.8627 64.8602H9.85273C2.33273 64.8602 -2.40727 70.6208 1.27273 75.2891L21.2027 100.55C22.9427 102.761 26.2227 104.126 29.7827 104.126L29.7927 104.118Z" fill="url(#paint0_linear_645_1812)"/>
<path d="M76.0526 104.971H31.2726C23.1026 104.971 18.2726 97.1536 22.8826 91.4015L47.9726 60.1065C49.8626 57.7425 53.0026 56.3344 56.3626 56.3344H96.6426C104.413 56.3344 109.313 63.469 105.503 69.2552L84.9126 100.55C83.1126 103.281 79.7226 104.98 76.0526 104.98V104.971Z" fill="url(#paint1_linear_645_1812)"/>
<path d="M41.0027 15.3616C45.9732 15.3616 50.0027 11.9228 50.0027 7.68082C50.0027 3.43882 45.9732 0 41.0027 0C36.0321 0 32.0027 3.43882 32.0027 7.68082C32.0027 11.9228 36.0321 15.3616 41.0027 15.3616Z" fill="#FFF4E3"/>
<path d="M29.0027 51.2055C33.9732 51.2055 38.0027 47.7667 38.0027 43.5247C38.0027 39.2827 33.9732 35.8439 29.0027 35.8439C24.0321 35.8439 20.0027 39.2827 20.0027 43.5247C20.0027 47.7667 24.0321 51.2055 29.0027 51.2055Z" fill="#FFF4E3"/>
<path d="M53.0027 51.2055C57.9732 51.2055 62.0027 47.7667 62.0027 43.5247C62.0027 39.2827 57.9732 35.8439 53.0027 35.8439C48.0321 35.8439 44.0027 39.2827 44.0027 43.5247C44.0027 47.7667 48.0321 51.2055 53.0027 51.2055Z" fill="#FFF4E3"/>
<path d="M20.0027 30.7233C24.9732 30.7233 29.0027 27.2845 29.0027 23.0425C29.0027 18.8005 24.9732 15.3617 20.0027 15.3617C15.0321 15.3617 11.0027 18.8005 11.0027 23.0425C11.0027 27.2845 15.0321 30.7233 20.0027 30.7233Z" fill="#FFF4E3"/>
<path d="M62.0027 30.7233C66.9732 30.7233 71.0027 27.2845 71.0027 23.0425C71.0027 18.8005 66.9732 15.3617 62.0027 15.3617C57.0321 15.3617 53.0027 18.8005 53.0027 23.0425C53.0027 27.2845 57.0321 30.7233 62.0027 30.7233Z" fill="#FFF4E3"/>
<defs>
<linearGradient id="paint0_linear_645_1812" x1="30.8327" y1="69.3919" x2="56.6904" y2="119.629" gradientUnits="userSpaceOnUse">
<stop stop-color="white" stop-opacity="0.3"/>
<stop offset="1" stop-color="white"/>
</linearGradient>
<linearGradient id="paint1_linear_645_1812" x1="77.5526" y1="103.682" x2="47.8348" y2="34.5354" gradientUnits="userSpaceOnUse">
<stop stop-color="#FFA94C"/>
<stop offset="0.66" stop-color="#FFCF43"/>
</linearGradient>
</defs>
</svg>
