<svg width="100" height="100" viewBox="0 0 100 100" fill="none" xmlns="http://www.w3.org/2000/svg">
<g clip-path="url(#clip0_631_270)">
<path d="M50.0222 27.5391C35.8258 27.5391 24.3749 37.5586 24.3749 49.9805C24.3749 62.4023 35.8258 72.4219 50.0222 72.4219C64.2187 72.4219 75.6695 62.4023 75.6695 49.9805C75.6695 37.5586 64.2187 27.5391 50.0222 27.5391ZM50.0222 64.5703C40.8481 64.5703 33.3481 58.0273 33.3481 49.9805C33.3481 41.9336 40.8258 35.3906 50.0222 35.3906C59.2187 35.3906 66.6963 41.9336 66.6963 49.9805C66.6963 58.0273 59.1963 64.5703 50.0222 64.5703ZM82.7008 26.6211C82.7008 29.5312 80.0222 31.8555 76.7187 31.8555C73.3928 31.8555 70.7365 29.5117 70.7365 26.6211C70.7365 23.7305 73.4151 21.3867 76.7187 21.3867C80.0222 21.3867 82.7008 23.7305 82.7008 26.6211ZM99.6874 31.9336C99.3079 24.9219 97.4776 18.7109 91.607 13.5937C85.7588 8.47656 78.6606 6.875 70.6472 6.52344C62.3883 6.11328 37.6338 6.11328 29.3749 6.52344C21.3838 6.85547 14.2856 8.45703 8.41507 13.5742C2.54454 18.6914 0.736503 24.9023 0.334717 31.9141C-0.134033 39.1406 -0.134033 60.8008 0.334717 68.0273C0.714181 75.0391 2.54454 81.25 8.41507 86.3672C14.2856 91.4844 21.3615 93.0859 29.3749 93.4375C37.6338 93.8476 62.3883 93.8476 70.6472 93.4375C78.6606 93.1055 85.7588 91.5039 91.607 86.3672C97.4553 81.25 99.2856 75.0391 99.6874 68.0273C100.156 60.8008 100.156 39.1602 99.6874 31.9336ZM89.0178 75.7812C87.2767 79.6094 83.9062 82.5586 79.5088 84.1016C72.924 86.3867 57.299 85.8594 50.0222 85.8594C42.7454 85.8594 27.0981 86.3672 20.5356 84.1016C16.1606 82.5781 12.7901 79.6289 11.0267 75.7812C8.41508 70.0195 9.01775 56.3477 9.01775 49.9805C9.01775 43.6133 8.4374 29.9219 11.0267 24.1797C12.7678 20.3516 16.1383 17.4023 20.5356 15.8594C27.1204 13.5742 42.7454 14.1016 50.0222 14.1016C57.299 14.1016 72.9463 13.5937 79.5088 15.8594C83.8838 17.3828 87.2544 20.332 89.0178 24.1797C91.6294 29.9414 91.0267 43.6133 91.0267 49.9805C91.0267 56.3477 91.6294 70.0391 89.0178 75.7812Z" fill="black"/>
</g>
<defs>
<clipPath id="clip0_631_270">
<rect width="100" height="100" fill="white"/>
</clipPath>
</defs>
</svg>
