<svg width="96" height="88" viewBox="0 0 96 88" fill="none" xmlns="http://www.w3.org/2000/svg">
<path d="M60.97 10.6678H9.03C4.04287 10.6678 0 14.1181 0 18.3743V79.7696C0 84.0257 4.04287 87.476 9.03 87.476H60.97C65.9571 87.476 70 84.0257 70 79.7696V18.3743C70 14.1181 65.9571 10.6678 60.97 10.6678Z" fill="url(#paint0_linear_743_226)"/>
<path d="M73.47 0H21.53C16.5429 0 12.5 3.45028 12.5 7.70642V69.1018C12.5 73.3579 16.5429 76.8082 21.53 76.8082H73.47C78.4571 76.8082 82.5 73.3579 82.5 69.1018V7.70642C82.5 3.45028 78.4571 0 73.47 0Z" fill="url(#paint1_linear_743_226)"/>
<g clip-path="url(#clip0_743_226)">
<path d="M40 27.125V46.25C40.0034 49.0669 41.1239 51.7674 43.1157 53.7593C45.1076 55.7511 47.8081 56.8716 50.625 56.875H80.375C83.1919 56.8716 85.8924 55.7511 87.8843 53.7593C89.8761 51.7674 90.9966 49.0669 91 46.25V27.125H40ZM69.75 48.375H52.75C52.1864 48.375 51.6459 48.1511 51.2474 47.7526C50.8489 47.3541 50.625 46.8136 50.625 46.25C50.625 45.6864 50.8489 45.1459 51.2474 44.7474C51.6459 44.3489 52.1864 44.125 52.75 44.125H69.75C70.3136 44.125 70.8541 44.3489 71.2526 44.7474C71.6511 45.1459 71.875 45.6864 71.875 46.25C71.875 46.8136 71.6511 47.3541 71.2526 47.7526C70.8541 48.1511 70.3136 48.375 69.75 48.375ZM78.25 39.875H52.75C52.1864 39.875 51.6459 39.6511 51.2474 39.2526C50.8489 38.8541 50.625 38.3136 50.625 37.75C50.625 37.1864 50.8489 36.6459 51.2474 36.2474C51.6459 35.8489 52.1864 35.625 52.75 35.625H78.25C78.8136 35.625 79.3541 35.8489 79.7526 36.2474C80.1511 36.6459 80.375 37.1864 80.375 37.75C80.375 38.3136 80.1511 38.8541 79.7526 39.2526C79.3541 39.6511 78.8136 39.875 78.25 39.875ZM91 22.875V20.75C90.9966 17.9331 89.8761 15.2326 87.8843 13.2407C85.8924 11.2489 83.1919 10.1284 80.375 10.125H50.625C47.8081 10.1284 45.1076 11.2489 43.1157 13.2407C41.1239 15.2326 40.0034 17.9331 40 20.75V22.875H91ZM61.25 14.375C61.6703 14.375 62.0811 14.4996 62.4306 14.7331C62.78 14.9666 63.0524 15.2985 63.2132 15.6868C63.3741 16.0751 63.4162 16.5024 63.3342 16.9146C63.2522 17.3268 63.0498 17.7054 62.7526 18.0026C62.4554 18.2998 62.0768 18.5022 61.6646 18.5842C61.2524 18.6662 60.8251 18.6241 60.4368 18.4632C60.0485 18.3024 59.7166 18.03 59.4831 17.6806C59.2496 17.3311 59.125 16.9203 59.125 16.5C59.125 15.9364 59.3489 15.3959 59.7474 14.9974C60.1459 14.5989 60.6864 14.375 61.25 14.375ZM54.875 14.375C55.2953 14.375 55.7061 14.4996 56.0556 14.7331C56.405 14.9666 56.6774 15.2985 56.8382 15.6868C56.9991 16.0751 57.0412 16.5024 56.9592 16.9146C56.8772 17.3268 56.6748 17.7054 56.3776 18.0026C56.0804 18.2998 55.7018 18.5022 55.2896 18.5842C54.8774 18.6662 54.4501 18.6241 54.0618 18.4632C53.6735 18.3024 53.3416 18.03 53.1081 17.6806C52.8746 17.3311 52.75 16.9203 52.75 16.5C52.75 15.9364 52.9739 15.3959 53.3724 14.9974C53.7709 14.5989 54.3114 14.375 54.875 14.375ZM48.5 14.375C48.9203 14.375 49.3311 14.4996 49.6806 14.7331C50.03 14.9666 50.3024 15.2985 50.4632 15.6868C50.6241 16.0751 50.6662 16.5024 50.5842 16.9146C50.5022 17.3268 50.2998 17.7054 50.0026 18.0026C49.7054 18.2998 49.3268 18.5022 48.9146 18.5842C48.5024 18.6662 48.0751 18.6241 47.6868 18.4632C47.2985 18.3024 46.9666 18.03 46.7331 17.6806C46.4996 17.3311 46.375 16.9203 46.375 16.5C46.375 15.9364 46.5989 15.3959 46.9974 14.9974C47.3959 14.5989 47.9364 14.375 48.5 14.375Z" fill="#FFF4E3"/>
</g>
<defs>
<linearGradient id="paint0_linear_743_226" x1="19.93" y1="27.7449" x2="56.4504" y2="98.7104" gradientUnits="userSpaceOnUse">
<stop stop-color="white" stop-opacity="0.3"/>
<stop offset="1"/>
</linearGradient>
<linearGradient id="paint1_linear_743_226" x1="32.43" y1="17.077" x2="68.9504" y2="88.0425" gradientUnits="userSpaceOnUse">
<stop stop-color="#FFA94C"/>
<stop offset="0.66" stop-color="#FFCF43"/>
</linearGradient>
<clipPath id="clip0_743_226">
<rect width="51" height="51" fill="white" transform="translate(40 8)"/>
</clipPath>
</defs>
</svg>
