<svg width="99" height="88" viewBox="0 0 99 88" fill="none" xmlns="http://www.w3.org/2000/svg">
<path d="M60.97 10.6678H9.03C4.04287 10.6678 0 14.1181 0 18.3743V79.7696C0 84.0257 4.04287 87.476 9.03 87.476H60.97C65.9571 87.476 70 84.0257 70 79.7696V18.3743C70 14.1181 65.9571 10.6678 60.97 10.6678Z" fill="url(#paint0_linear_739_165)"/>
<path d="M73.47 0H21.53C16.5429 0 12.5 3.45028 12.5 7.70642V69.1018C12.5 73.3579 16.5429 76.8082 21.53 76.8082H73.47C78.4571 76.8082 82.5 73.3579 82.5 69.1018V7.70642C82.5 3.45028 78.4571 0 73.47 0Z" fill="url(#paint1_linear_739_165)"/>
<path d="M45 55.0459C58.2548 55.0459 69 45.8757 69 34.5637C69 23.2517 58.2548 14.0815 45 14.0815C31.7452 14.0815 21 23.2517 21 34.5637C21 45.8757 31.7452 55.0459 45 55.0459Z" fill="#FFF4E3"/>
<path d="M94.0346 72.8392L78.8748 54.6341C76.1554 51.3684 70.8489 50.6024 67.0223 52.9232C63.1958 55.244 62.2983 59.7728 65.0176 63.0384L80.1774 81.2436C82.8968 84.5092 88.2033 85.2752 92.0299 82.9544C95.8565 80.6336 96.754 76.1049 94.0346 72.8392Z" fill="#FFF4E3"/>
<defs>
<linearGradient id="paint0_linear_739_165" x1="19.93" y1="27.7449" x2="56.4504" y2="98.7104" gradientUnits="userSpaceOnUse">
<stop stop-color="white" stop-opacity="0.3"/>
<stop offset="1"/>
</linearGradient>
<linearGradient id="paint1_linear_739_165" x1="32.43" y1="17.077" x2="68.9504" y2="88.0425" gradientUnits="userSpaceOnUse">
<stop stop-color="#FFA94C"/>
<stop offset="0.66" stop-color="#FFCF43"/>
</linearGradient>
</defs>
</svg>
