<svg width="149" height="130" viewBox="0 0 149 130" fill="none" xmlns="http://www.w3.org/2000/svg">
<path d="M122.256 0H44.1307C37.1411 0 31.4749 4.84016 31.4749 10.8108V101.56C31.4749 107.531 37.1411 112.371 44.1307 112.371H122.256C129.245 112.371 134.912 107.531 134.912 101.56V10.8108C134.912 4.84016 129.245 0 122.256 0Z" fill="black"/>
<path d="M112.862 8.61743H52.9868C48.3119 8.61743 44.5222 11.8547 44.5222 15.848V96.7527C44.5222 100.746 48.3119 103.983 52.9868 103.983H112.862C117.537 103.983 121.326 100.746 121.326 96.7527V15.848C121.326 11.8547 117.537 8.61743 112.862 8.61743Z" fill="white"/>
<path d="M65.2028 23.2071C61.906 23.2071 58.6025 23.291 55.3137 23.183C52.0802 23.0773 49.5474 21.3125 49.4747 19.3454C49.3819 16.797 51.4036 14.9816 54.9304 14.7288C57.365 14.5541 59.844 14.6219 62.3041 14.6139C66.2156 14.6001 70.1284 14.5656 74.0386 14.6288C79.24 14.7127 82.2449 18.2837 79.579 21.1677C78.4558 22.3822 76.7879 23.1577 74.5551 23.1968C71.4399 23.2508 68.3207 23.2106 65.2028 23.2106C65.2028 23.2106 65.2028 23.2083 65.2028 23.2071Z" fill="black"/>
<path d="M87.901 23.2094C90.6867 23.2094 92.945 21.2804 92.945 18.9007C92.945 16.5211 90.6867 14.592 87.901 14.592C85.1152 14.592 82.8569 16.5211 82.8569 18.9007C82.8569 21.2804 85.1152 23.2094 87.901 23.2094Z" fill="black"/>
<path d="M99.8722 23.2094C102.658 23.2094 104.916 21.2804 104.916 18.9007C104.916 16.5211 102.658 14.592 99.8722 14.592C97.0864 14.592 94.8281 16.5211 94.8281 18.9007C94.8281 21.2804 97.0864 23.2094 99.8722 23.2094Z" fill="black"/>
<path d="M111.843 23.2094C114.629 23.2094 116.887 21.2804 116.887 18.9007C116.887 16.5211 114.629 14.592 111.843 14.592C109.058 14.592 106.799 16.5211 106.799 18.9007C106.799 21.2804 109.058 23.2094 111.843 23.2094Z" fill="black"/>
<path d="M112.806 32.9758H53.1764C50.6997 32.9758 48.6919 34.6909 48.6919 36.8065V47.1842C48.6919 49.2998 50.6997 51.0149 53.1764 51.0149H112.806C115.283 51.0149 117.291 49.2998 117.291 47.1842V36.8065C117.291 34.6909 115.283 32.9758 112.806 32.9758Z" fill="black"/>
<path d="M112.806 55.9556H53.1764C50.6997 55.9556 48.6919 57.6706 48.6919 59.7863V70.1639C48.6919 72.2796 50.6997 73.9946 53.1764 73.9946H112.806C115.283 73.9946 117.291 72.2796 117.291 70.1639V59.7863C117.291 57.6706 115.283 55.9556 112.806 55.9556Z" fill="black"/>
<path d="M112.806 78.4757H53.1764C50.6997 78.4757 48.6919 80.1908 48.6919 82.3064V92.6841C48.6919 94.7997 50.6997 96.5148 53.1764 96.5148H112.806C115.283 96.5148 117.291 94.7997 117.291 92.6841V82.3064C117.291 80.1908 115.283 78.4757 112.806 78.4757Z" fill="black"/>
<path d="M74.7932 29.5289H8.33276C3.7307 29.5289 0 32.7158 0 36.6469V55.7315C0 59.6627 3.7307 62.8495 8.33276 62.8495H74.7932C79.3952 62.8495 83.1259 59.6627 83.1259 55.7315V36.6469C83.1259 32.7158 79.3952 29.5289 74.7932 29.5289Z" fill="white"/>
<path d="M75.5574 33.0908H7.43443C5.63149 33.0908 4.16992 34.3393 4.16992 35.8794V56.4991C4.16992 58.0392 5.63149 59.2877 7.43443 59.2877H75.5574C77.3603 59.2877 78.8219 58.0392 78.8219 56.4991V35.8794C78.8219 34.3393 77.3603 33.0908 75.5574 33.0908Z" fill="black"/>
<path d="M28.5574 52.3213C26.8464 52.6384 25.3049 52.797 23.933 52.797C22.561 52.797 21.4634 52.6522 20.6402 52.3627C19.817 52.0731 19.1714 51.6113 18.7033 50.977C18.2352 50.3428 17.9124 49.5982 17.7348 48.7434C17.5573 47.8885 17.4685 46.8131 17.4685 45.517C17.4685 42.8008 17.9164 40.9085 18.8122 39.8399C19.7081 38.7713 21.3585 38.2371 23.7635 38.2371C25.1516 38.2371 26.7576 38.4232 28.5816 38.7955L28.4847 41.0705C26.8868 40.8636 25.5592 40.7602 24.5019 40.7602C23.4447 40.7602 22.6901 40.8809 22.2382 41.1222C21.7862 41.3634 21.4513 41.8219 21.2334 42.4975C21.0155 43.1731 20.9065 44.3244 20.9065 45.9513C20.9065 47.5783 21.1285 48.7055 21.5723 49.3328C22.0162 49.9602 22.904 50.2738 24.2356 50.2738C25.5672 50.2738 26.9836 50.1773 28.4847 49.9843L28.5574 52.3213Z" fill="white"/>
<path d="M34.6102 47.8334V52.5488H31.269V38.4852H37.6609C41.5347 38.4852 43.4716 40.0295 43.4716 43.1179C43.4716 44.9517 42.6646 46.3029 41.0505 47.1716L43.399 52.5488H39.743L37.8303 47.8334H34.6102ZM39.4767 44.7725C39.8641 44.3588 40.0578 43.8142 40.0578 43.1386C40.0578 42.463 39.852 41.9253 39.4404 41.5254C39.0288 41.1256 38.4356 40.9257 37.6609 40.9257H34.6102V45.3929H37.7093C38.5002 45.3929 39.0893 45.1861 39.4767 44.7725Z" fill="white"/>
<path d="M46.28 52.5488V38.4852H51.9697L54.8751 48.7434L57.7805 38.4852H63.4702V52.5488H60.129V41.6702H59.7658L56.5457 51.9284H53.2045L49.9844 41.6702H49.6212V52.5488H46.28Z" fill="white"/>
<path d="M133.882 83.4164H108.904C100.833 83.4164 94.29 89.0055 94.29 95.9001V117.237C94.29 124.131 100.833 129.721 108.904 129.721H133.882C141.954 129.721 148.497 124.131 148.497 117.237V95.9001C148.497 89.0055 141.954 83.4164 133.882 83.4164Z" fill="white"/>
<path d="M123.291 125.124H120.868C119.919 125.005 118.97 124.898 118.024 124.763C117.177 124.641 116.776 124.216 116.773 123.479C116.769 122.515 116.722 121.549 116.791 120.589C116.835 119.967 116.635 119.667 115.91 119.444C114.355 118.967 112.987 118.18 111.704 117.262C110.59 117.811 109.483 118.359 108.374 118.903C107.074 119.54 106.704 119.491 105.679 118.548C105.651 118.521 105.621 118.496 105.594 118.468C103.957 116.743 102.728 114.823 101.887 112.723C101.607 112.024 101.848 111.572 102.6 111.199C103.743 110.631 104.883 110.06 106.037 109.51C106.294 109.387 106.345 109.258 106.296 109.027C105.994 107.574 105.992 106.117 106.298 104.662C106.346 104.43 106.288 104.303 106.034 104.181C104.88 103.63 103.739 103.059 102.596 102.492C101.851 102.122 101.621 101.669 101.874 100.962C102.44 99.378 103.379 97.9464 104.458 96.5871C104.985 95.923 105.6 95.298 106.257 94.7223C106.825 94.2248 107.245 94.2363 107.952 94.5821C109.099 95.144 110.247 95.7036 111.385 96.2792C111.627 96.4021 111.777 96.3895 111.997 96.2355C113.327 95.2968 114.801 94.5638 116.423 94.0571C116.683 93.9755 116.784 93.8721 116.78 93.6227C116.761 92.4807 116.769 91.3386 116.773 90.1965C116.776 89.4795 117.183 89.067 117.999 88.9257C120.722 88.4569 123.445 88.4454 126.17 88.9165C127.098 89.0774 127.471 89.4554 127.472 90.2735C127.473 91.4041 127.477 92.5335 127.468 93.6641C127.467 93.8583 127.527 93.956 127.753 94.0283C129.41 94.5546 130.929 95.2922 132.287 96.2608C132.476 96.3952 132.611 96.4079 132.828 96.2976C133.845 95.7817 134.874 95.2842 135.897 94.7775C137.155 94.1559 137.525 94.2018 138.53 95.1095C138.567 95.144 138.608 95.1773 138.643 95.2141C140.278 96.9272 141.49 98.8437 142.344 100.922C142.648 101.662 142.409 102.114 141.618 102.507C140.499 103.063 139.383 103.621 138.254 104.161C137.984 104.291 137.891 104.419 137.947 104.693C138.249 106.134 138.246 107.581 137.947 109.023C137.899 109.258 137.959 109.385 138.211 109.505C139.364 110.058 140.504 110.629 141.646 111.196C142.392 111.566 142.623 112.019 142.37 112.725C141.809 114.296 140.876 115.718 139.809 117.071C139.284 117.738 138.674 118.366 138.017 118.942C137.419 119.468 137.004 119.457 136.255 119.089C135.109 118.526 133.961 117.966 132.824 117.391C132.603 117.279 132.469 117.299 132.283 117.431C130.934 118.39 129.43 119.127 127.785 119.646C127.524 119.729 127.464 119.844 127.467 120.063C127.479 121.205 127.475 122.347 127.471 123.489C127.468 124.098 127.133 124.502 126.455 124.694C126.206 124.764 125.943 124.804 125.682 124.837C124.885 124.938 124.089 125.028 123.291 125.122V125.124ZM115.433 106.819C115.423 109.962 118.403 112.541 122.067 112.558C125.768 112.574 128.795 110.021 128.808 106.873C128.82 103.729 125.838 101.151 122.172 101.135C118.469 101.12 115.444 103.671 115.433 106.819Z" fill="black"/>
</svg>
