<svg width="96" height="88" viewBox="0 0 96 88" fill="none" xmlns="http://www.w3.org/2000/svg">
<path d="M60.97 10.6678H9.03C4.04287 10.6678 0 14.1181 0 18.3743V79.7696C0 84.0257 4.04287 87.476 9.03 87.476H60.97C65.9571 87.476 70 84.0257 70 79.7696V18.3743C70 14.1181 65.9571 10.6678 60.97 10.6678Z" fill="url(#paint0_linear_742_205)"/>
<path d="M73.47 0H21.53C16.5429 0 12.5 3.45028 12.5 7.70642V69.1018C12.5 73.3579 16.5429 76.8082 21.53 76.8082H73.47C78.4571 76.8082 82.5 73.3579 82.5 69.1018V7.70642C82.5 3.45028 78.4571 0 73.47 0Z" fill="url(#paint1_linear_742_205)"/>
<path d="M49.4373 28.0898C49.9069 28.2914 50.3961 28.3872 50.8779 28.3872C51.2245 28.3872 51.5662 28.3356 51.8932 28.2422C53.3559 25.2553 55.8044 21.086 59.4034 17.487C62.9336 13.9568 66.9579 11.5477 70.0111 10.0432C70.2004 9.29337 70.1562 8.47966 69.8341 7.7102C69.0401 5.83203 66.8718 4.95195 65.0035 5.74845C64.7699 5.84678 59.2387 8.21416 54.5949 12.8604C49.9609 17.4944 47.5837 23.0305 47.4854 23.2641C46.6938 25.1373 47.5665 27.2933 49.4373 28.0898Z" fill="#FFF4E3"/>
<path d="M84.3652 24.0335C82.927 22.3864 81.2406 20.5575 79.3428 18.6572C77.445 16.7569 75.6086 15.068 73.9664 13.6323C71.5327 14.6869 66.7807 17.0666 62.8793 20.9631C58.9288 24.9136 56.5418 29.7197 55.4699 32.2345C55.4527 32.2763 55.4331 32.3157 55.4134 32.355C56.1435 33.1933 56.9376 34.0807 57.7906 34.9952L39.5375 53.2484C38.0969 54.6865 38.0969 57.0244 39.5375 58.4625C40.2578 59.1828 41.2018 59.5417 42.1458 59.5417C43.0898 59.5417 44.0338 59.1828 44.7541 58.4625L63.0072 40.2094C63.9241 41.0624 64.8067 41.8565 65.645 42.5866C65.6843 42.5669 65.7261 42.5472 65.7679 42.53C68.2754 41.4607 73.0765 39.0785 77.0369 35.1182C80.9309 31.2217 83.3228 26.4378 84.3652 24.0335Z" fill="#FFF4E3"/>
<path d="M90.2972 28.1758C89.5277 27.8464 88.7042 27.8022 87.947 27.9964C86.445 31.0423 84.0309 35.0739 80.5105 38.5943C76.9017 42.2006 72.7348 44.6491 69.7504 46.1094C69.5267 46.8911 69.5587 47.7491 69.8979 48.5554C70.4928 49.9641 71.8597 50.8097 73.2953 50.8097C73.7747 50.8097 74.2615 50.7163 74.7285 50.5172C74.9621 50.4188 80.4933 48.0515 85.1371 43.4052C89.7711 38.7713 92.1483 33.2351 92.2466 33.0016C93.0382 31.1283 92.168 28.9723 90.2972 28.1758Z" fill="#FFF4E3"/>
<defs>
<linearGradient id="paint0_linear_742_205" x1="19.93" y1="27.7449" x2="56.4504" y2="98.7104" gradientUnits="userSpaceOnUse">
<stop stop-color="white" stop-opacity="0.3"/>
<stop offset="1"/>
</linearGradient>
<linearGradient id="paint1_linear_742_205" x1="32.43" y1="17.077" x2="68.9504" y2="88.0425" gradientUnits="userSpaceOnUse">
<stop stop-color="#FFA94C"/>
<stop offset="0.66" stop-color="#FFCF43"/>
</linearGradient>
</defs>
</svg>
