<svg width="96" height="88" viewBox="0 0 96 88" fill="none" xmlns="http://www.w3.org/2000/svg">
<path d="M60.97 10.6678H9.03C4.04287 10.6678 0 14.1181 0 18.3743V79.7696C0 84.0257 4.04287 87.476 9.03 87.476H60.97C65.9571 87.476 70 84.0257 70 79.7696V18.3743C70 14.1181 65.9571 10.6678 60.97 10.6678Z" fill="url(#paint0_linear_727_228)"/>
<path d="M73.47 0H21.53C16.5429 0 12.5 3.45028 12.5 7.70642V69.1018C12.5 73.3579 16.5429 76.8082 21.53 76.8082H73.47C78.4571 76.8082 82.5 73.3579 82.5 69.1018V7.70642C82.5 3.45028 78.4571 0 73.47 0Z" fill="url(#paint1_linear_727_228)"/>
<g clip-path="url(#clip0_727_228)">
<path d="M81.4765 39.9531C79.2979 39.9529 77.1851 40.6996 75.4904 42.0687C73.7958 43.4378 72.6218 45.3466 72.1643 47.4767L55.2829 38.0029C56.4211 36.3944 57.0323 34.4725 57.0323 32.5021C57.0323 30.5317 56.4211 28.6097 55.2829 27.0013L72.1643 17.5234C72.6688 19.8763 74.0453 21.951 76.0171 23.3303C77.989 24.7097 80.4099 25.2915 82.7931 24.9587C85.1764 24.6258 87.3453 23.4032 88.8639 21.5364C90.3824 19.6696 91.1379 17.2972 90.9786 14.8961C90.8192 12.495 89.7568 10.2432 88.0049 8.59349C86.253 6.94377 83.9415 6.01842 81.5352 6.00348C79.1288 5.98854 76.806 6.88511 75.0338 8.51295C73.2615 10.1408 72.1712 12.3792 71.9821 14.7781L53.5439 25.1297C52.1483 23.9893 50.4577 23.2683 48.6686 23.0505C46.8795 22.8327 45.0654 23.1271 43.4369 23.8994C41.8085 24.6717 40.4326 25.8902 39.4692 27.4134C38.5058 28.9366 37.9944 30.7019 37.9944 32.5042C37.9944 34.3064 38.5058 36.0717 39.4692 37.5949C40.4326 39.1181 41.8085 40.3366 43.4369 41.1089C45.0654 41.8812 46.8795 42.1756 48.6686 41.9578C50.4577 41.74 52.1483 41.019 53.5439 39.8786L71.9821 50.2302C72.1286 52.0758 72.8099 53.8387 73.9426 55.3031C75.0753 56.7676 76.6103 57.8701 78.3598 58.4759C80.1093 59.0816 81.9975 59.1643 83.7932 58.7137C85.589 58.2632 87.2145 57.299 88.4708 55.9391C89.7271 54.5792 90.5599 52.8826 90.8671 51.0568C91.1743 49.2311 90.9427 47.3554 90.2005 45.6592C89.4584 43.963 88.238 42.52 86.6886 41.5065C85.1392 40.4931 83.3279 39.9533 81.4765 39.9531ZM81.4765 8.48439C82.8687 8.48439 84.2297 8.89722 85.3872 9.67068C86.5448 10.4441 87.447 11.5435 87.9798 12.8297C88.5125 14.1159 88.6519 15.5313 88.3803 16.8967C88.1087 18.2621 87.4383 19.5164 86.4539 20.5008C85.4695 21.4853 84.2152 22.1557 82.8498 22.4273C81.4843 22.6989 80.069 22.5595 78.7828 22.0267C77.4966 21.4939 76.3972 20.5917 75.6238 19.4341C74.8503 18.2766 74.4375 16.9156 74.4375 15.5235C74.4375 13.6566 75.1791 11.8662 76.4992 10.5461C77.8192 9.226 79.6097 8.48439 81.4765 8.48439ZM42.5547 37.4688C41.3621 36.1269 40.7274 34.3801 40.7802 32.5857C40.833 30.7913 41.5694 29.0848 42.8388 27.8154C44.1082 26.546 45.8147 25.8096 47.6091 25.7568C49.4035 25.704 51.1503 26.3387 52.4922 27.5313C53.6847 28.8731 54.3195 30.6199 54.2666 32.4143C54.2138 34.2088 53.4774 35.9152 52.208 37.1846C50.9386 38.454 49.2322 39.1904 47.4377 39.2432C45.6433 39.2961 43.8965 38.6613 42.5547 37.4688ZM81.4765 56.5156C80.0843 56.5156 78.7234 56.1028 77.5658 55.3293C76.4083 54.5559 75.5061 53.4565 74.9733 52.1703C74.4405 50.8841 74.3011 49.4688 74.5727 48.1033C74.8443 46.7379 75.5147 45.4836 76.4992 44.4992C77.4836 43.5148 78.7378 42.8444 80.1033 42.5728C81.4687 42.3012 82.884 42.4406 84.1703 42.9733C85.4565 43.5061 86.5558 44.4083 87.3293 45.5659C88.1028 46.7235 88.5156 48.0844 88.5156 49.4766C88.5156 51.3435 87.774 53.1339 86.4539 54.4539C85.1338 55.774 83.3434 56.5156 81.4765 56.5156Z" fill="#FFF4E3"/>
<path d="M55 32.5C55 36.6421 51.6421 40 47.5 40C43.3579 40 40 36.6421 40 32.5C40 28.3579 43.3579 25 47.5 25C51.6421 25 55 28.3579 55 32.5Z" fill="#FFF4E3"/>
<path d="M55 32.5C55 36.6421 51.6421 40 47.5 40C43.3579 40 40 36.6421 40 32.5C40 28.3579 43.3579 25 47.5 25C51.6421 25 55 28.3579 55 32.5Z" fill="#FFF4E3"/>
<path d="M89 15.5C89 19.6421 85.6421 23 81.5 23C77.3579 23 74 19.6421 74 15.5C74 11.3579 77.3579 8 81.5 8C85.6421 8 89 11.3579 89 15.5Z" fill="#FFF4E3"/>
<path d="M89 15.5C89 19.6421 85.6421 23 81.5 23C77.3579 23 74 19.6421 74 15.5C74 11.3579 77.3579 8 81.5 8C85.6421 8 89 11.3579 89 15.5Z" fill="#FFF4E3"/>
<path d="M89 49.5C89 53.6421 85.6421 57 81.5 57C77.3579 57 74 53.6421 74 49.5C74 45.3579 77.3579 42 81.5 42C85.6421 42 89 45.3579 89 49.5Z" fill="#FFF4E3"/>
<path d="M89 49.5C89 53.6421 85.6421 57 81.5 57C77.3579 57 74 53.6421 74 49.5C74 45.3579 77.3579 42 81.5 42C85.6421 42 89 45.3579 89 49.5Z" fill="#FFF4E3"/>
</g>
<defs>
<linearGradient id="paint0_linear_727_228" x1="19.93" y1="27.7449" x2="56.4504" y2="98.7104" gradientUnits="userSpaceOnUse">
<stop stop-color="white" stop-opacity="0.3"/>
<stop offset="1"/>
</linearGradient>
<linearGradient id="paint1_linear_727_228" x1="32.43" y1="17.077" x2="68.9504" y2="88.0425" gradientUnits="userSpaceOnUse">
<stop stop-color="#FFA94C"/>
<stop offset="0.66" stop-color="#FFCF43"/>
</linearGradient>
<clipPath id="clip0_727_228">
<rect width="53" height="53" fill="white" transform="translate(38 6)"/>
</clipPath>
</defs>
</svg>
