<svg width="96" height="88" viewBox="0 0 96 88" fill="none" xmlns="http://www.w3.org/2000/svg">
<path d="M60.97 10.6678H9.03C4.04287 10.6678 0 14.1181 0 18.3743V79.7696C0 84.0257 4.04287 87.476 9.03 87.476H60.97C65.9571 87.476 70 84.0257 70 79.7696V18.3743C70 14.1181 65.9571 10.6678 60.97 10.6678Z" fill="url(#paint0_linear_645_1815)"/>
<path d="M73.47 0H21.53C16.5429 0 12.5 3.45028 12.5 7.70642V69.1018C12.5 73.3579 16.5429 76.8082 21.53 76.8082H73.47C78.4571 76.8082 82.5 73.3579 82.5 69.1018V7.70642C82.5 3.45028 78.4571 0 73.47 0Z" fill="url(#paint1_linear_645_1815)"/>
<path d="M87.62 14.0815H35.64C31.4206 14.0815 28 17.0007 28 20.6017V51.086C28 54.687 31.4206 57.6062 35.64 57.6062H87.62C91.8395 57.6062 95.26 54.687 95.26 51.086V20.6017C95.26 17.0007 91.8395 14.0815 87.62 14.0815Z" fill="#FFF4E3"/>
<path d="M95 22.2832H28V36.1599H95V22.2832Z" fill="url(#paint2_linear_645_1815)"/>
<defs>
<linearGradient id="paint0_linear_645_1815" x1="19.93" y1="27.7449" x2="56.4504" y2="98.7104" gradientUnits="userSpaceOnUse">
<stop stop-color="white" stop-opacity="0.3"/>
<stop offset="1" stop-color="white"/>
</linearGradient>
<linearGradient id="paint1_linear_645_1815" x1="32.43" y1="17.077" x2="68.9504" y2="88.0425" gradientUnits="userSpaceOnUse">
<stop stop-color="#FFA94C"/>
<stop offset="0.66" stop-color="#FFCF43"/>
</linearGradient>
<linearGradient id="paint2_linear_645_1815" x1="54.63" y1="19.501" x2="71.2682" y2="51.8407" gradientUnits="userSpaceOnUse">
<stop stop-color="white" stop-opacity="0.3"/>
<stop offset="0.05" stop-color="#F6F6F6" stop-opacity="0.1444"/>
<stop offset="0.23" stop-color="#DEDEDE" stop-opacity="0.36"/>
<stop offset="0.41" stop-color="#CBCBCB" stop-opacity="0.6084"/>
<stop offset="0.59" stop-color="#BDBDBD" stop-opacity="0.81"/>
<stop offset="0.78" stop-color="#B5B5B5" stop-opacity="0.9604"/>
<stop offset="1" stop-color="#B3B3B3"/>
</linearGradient>
</defs>
</svg>
