<svg width="149" height="130" viewBox="0 0 149 130" fill="none" xmlns="http://www.w3.org/2000/svg">
<path d="M114.363 112.601H51.4841C40.8042 112.601 32.146 105.205 32.146 96.0816V16.519C32.146 7.39602 40.8042 0 51.4841 0H91.8662C95.736 0 99.4417 1.33167 102.147 3.69629C108.411 9.16891 120.198 19.4627 127.458 25.8028C131.46 29.2968 133.7 33.9904 133.7 38.8782V96.0816C133.7 105.205 125.041 112.601 114.361 112.601H114.363Z" fill="black"/>
<path d="M42.4481 56.699C42.4481 49.9579 42.4521 43.2179 42.4467 36.4768C42.4413 30.3424 42.4198 24.208 42.4158 18.0724C42.4144 16.0146 42.8449 14.0429 44.3191 12.3527C46.1551 10.2489 48.5574 8.85178 51.6861 8.76561C56.2297 8.63922 60.7802 8.65301 65.3279 8.64152C72.7904 8.62313 80.2542 8.63118 87.7167 8.63577C88.2736 8.63577 88.8345 8.67254 89.3873 8.73343C90.5831 8.86327 91.4319 9.41938 91.9995 10.3236C92.7797 11.5691 93.0366 12.9192 93.0446 14.3014C93.0742 19.2214 93.0634 24.1402 93.0917 29.0601C93.0957 29.7633 93.1791 30.4734 93.3163 31.1674C93.7615 33.4286 95.6312 34.5374 98.1761 34.5787C104.308 34.6764 110.442 34.6672 116.575 34.7177C118.122 34.7304 119.635 34.9073 121.061 35.4899C122.694 36.1574 123.447 37.2639 123.45 38.7783C123.46 44.3876 123.466 49.997 123.473 55.6052C123.488 68.4658 123.501 81.3264 123.515 94.187C123.516 95.7599 123.33 97.303 122.591 98.7691C121.375 101.18 119.245 102.715 116.364 103.524C114.236 104.121 112.026 103.935 109.845 103.953C106.446 103.981 103.047 103.963 99.6476 103.96C95.8666 103.958 92.0855 103.946 88.3059 103.948C81.2146 103.95 74.1234 103.968 67.0334 103.959C62.0674 103.952 57.096 104.008 52.1354 103.853C47.4087 103.705 43.6721 101.164 42.7628 97.0927C42.5422 96.1081 42.4507 95.0878 42.4467 94.0835C42.4198 87.6148 42.4333 81.1448 42.4346 74.676C42.4346 68.6841 42.4346 62.6921 42.4346 56.7001H42.4481V56.699ZM83.0399 77.9702V77.9943H80.4237C73.3284 77.9943 66.2345 77.9897 59.1392 78C58.3388 78.0012 57.5278 78.0334 56.7396 78.1425C54.3157 78.478 52.7796 80.0292 52.6182 82.2364C52.4904 83.9966 54.0319 85.8488 56.1316 86.3635C56.831 86.5347 57.5802 86.6335 58.3066 86.6347C74.0817 86.6519 89.8581 86.6531 105.633 86.6485C107.101 86.6485 108.59 86.7703 110.011 86.3038C111.721 85.7431 112.87 84.7285 113.198 83.1808C113.537 81.5814 113.116 80.1486 111.568 79.0617C110.383 78.2287 108.984 77.9771 107.51 77.9759C99.353 77.9667 91.1965 77.9713 83.0399 77.9713V77.9702ZM82.9646 43.3282C74.8268 43.3282 66.6905 43.326 58.5527 43.3328C57.9515 43.3328 57.3448 43.3708 56.7516 43.4489C53.8046 43.8361 51.9726 46.3328 52.8241 48.7721C53.5356 50.807 55.3891 51.9445 58.0106 51.9445C74.3735 51.9445 90.7365 51.9456 107.099 51.941C107.701 51.941 108.306 51.8997 108.903 51.8365C112.025 51.5067 113.943 49.0663 113.129 46.4788C112.528 44.5703 110.48 43.3282 107.914 43.3282C99.5978 43.3271 91.2812 43.3282 82.9646 43.3282ZM77.9905 60.6791C77.9905 60.6791 77.9905 60.6745 77.9905 60.6722C72.9706 60.6722 67.9522 60.6607 62.9323 60.6779C60.8972 60.6848 58.8526 60.6527 56.831 60.8124C53.1562 61.1042 51.5502 64.9165 53.3688 67.2708C54.5269 68.7691 56.2769 69.2896 58.2743 69.2907C71.3404 69.2999 84.4065 69.2953 97.4713 69.2953C97.6502 69.2953 97.8304 69.2999 98.0093 69.2873C100.234 69.123 102 68.3681 102.881 66.4964C103.891 64.3512 102.525 60.7227 98.0241 60.6906C91.3457 60.6435 84.6675 60.6779 77.9891 60.6779L77.9905 60.6791Z" fill="white"/>
<path d="M65.3722 33.7779C62.6888 33.7779 60 33.8618 57.3233 33.7538C54.6909 33.6481 52.6289 31.8833 52.5711 29.9162C52.4958 27.3678 54.1408 25.5524 57.0125 25.2996C58.9938 25.1249 61.0128 25.1927 63.0143 25.1847C66.1981 25.1709 69.3833 25.1364 72.5658 25.1996C76.7987 25.2835 79.2454 28.8545 77.0758 31.7385C76.1625 32.953 74.8039 33.7285 72.9867 33.7676C70.4513 33.8216 67.9117 33.7814 65.3736 33.7814C65.3736 33.7814 65.3736 33.7791 65.3736 33.7779H65.3722Z" fill="black"/>
<path d="M55.8275 29.5289H8.3328C3.73073 29.5289 0 32.7158 0 36.6469V55.7315C0 59.6627 3.73073 62.8495 8.3328 62.8495H55.8275C60.4296 62.8495 64.1603 59.6627 64.1603 55.7315V36.6469C64.1603 32.7158 60.4296 29.5289 55.8275 29.5289Z" fill="white"/>
<path d="M55.9189 33.0908H7.29967C5.49673 33.0908 4.03516 34.3393 4.03516 35.8794V56.4991C4.03516 58.0392 5.49673 59.2877 7.29967 59.2877H55.9189C57.7219 59.2877 59.1834 58.0392 59.1834 56.4991V35.8794C59.1834 34.3393 57.7219 33.0908 55.9189 33.0908Z" fill="black"/>
<path d="M31.6752 46.1364C35.0729 43.2927 38.4382 40.4765 41.7848 37.6753C42.842 36.7906 44.5355 36.7997 45.5806 37.6948C45.5927 37.7063 45.6062 37.7166 45.6183 37.7281C46.6688 38.6278 46.6674 40.0835 45.6156 40.9821C41.0571 44.8748 36.4677 48.794 31.8594 52.7316C30.8157 53.6232 29.1276 53.6324 28.0704 52.7511C25.508 50.6151 22.9214 48.4574 20.3388 46.3053C19.2641 45.4091 19.2547 43.9361 20.316 43.0295C20.3388 43.01 20.3604 42.9916 20.3832 42.9721C21.4364 42.0724 23.1433 42.0724 24.1952 42.9721C25.4138 44.0131 26.6419 45.0632 27.8807 46.1203C28.9258 47.0131 30.6179 47.02 31.6738 46.1364H31.6752Z" fill="white"/>
<path d="M134.286 83.4164H109.308C101.237 83.4164 94.6936 89.0055 94.6936 95.9001V117.237C94.6936 124.131 101.237 129.721 109.308 129.721H134.286C142.357 129.721 148.9 124.131 148.9 117.237V95.9001C148.9 89.0055 142.357 83.4164 134.286 83.4164Z" fill="white"/>
<path d="M121.366 95.2532C121.845 97.3018 120.604 98.2566 118.262 97.6775C116.894 97.3397 115.519 97.0238 114.154 96.6745C112.47 96.2447 111.951 95.0096 112.934 93.7572C113.782 92.6783 114.669 91.6224 115.53 90.5515C116.109 89.8311 116.871 89.4106 117.903 89.6542C118.897 89.8886 119.489 90.4814 119.479 91.3983C119.474 91.8717 119.817 91.735 120.098 91.7143C124.607 91.3776 128.708 92.3382 132.388 94.5753C134.912 96.1092 136.842 98.0831 138.175 100.479C138.349 100.794 138.422 101.177 139.077 100.961C139.761 100.736 139.36 100.406 139.271 100.135C138.964 99.2022 139.256 98.63 140.215 98.3945C141.128 98.1693 141.749 98.4979 142.071 99.3838C142.506 100.573 142.943 101.762 143.372 102.954C143.685 103.823 143.379 104.372 142.447 104.632C141.584 104.874 140.943 104.568 140.6 103.76C140.494 103.51 140.528 103.172 139.962 103.312C139.377 103.457 139.487 103.74 139.567 104.097C141.388 112.235 135.86 119.922 126.568 122.185C114.429 125.142 102.389 116.508 103.649 105.75C103.79 104.543 104.694 103.788 105.903 103.867C107.168 103.951 107.917 104.817 107.826 106.078C107.472 110.978 109.655 114.825 114.519 117.452C120.518 120.692 128.957 119.196 133.032 114.249C138.093 108.108 135.865 100.046 128.097 96.5205C126.011 95.5737 123.746 95.1739 121.366 95.2532Z" fill="black"/>
<path d="M118.725 109.889C118.292 109.622 118.126 109.333 117.955 109.052C116.726 107.034 115.499 105.013 114.279 102.99C113.782 102.164 113.99 101.422 114.797 101.073C115.534 100.753 116.375 101.045 116.851 101.821C117.9 103.532 118.945 105.246 119.961 106.972C120.212 107.399 120.503 107.579 121.088 107.582C124.001 107.594 126.915 107.652 129.827 107.694C130.075 107.698 130.326 107.686 130.571 107.717C131.386 107.818 131.966 108.379 131.931 109.009C131.893 109.669 131.304 110.195 130.458 110.188C126.77 110.154 123.081 110.093 119.393 110.029C119.126 110.024 118.859 109.919 118.725 109.889Z" fill="black"/>
</svg>
