<svg xmlns="http://www.w3.org/2000/svg" width="193pt" height="193pt" viewBox="0 0 193 193"><path d="M0 .242h192.758V193H0z" style="stroke:none;fill-rule:evenodd;fill:#fff;fill-opacity:1"/><path d="M181.059 98.36a1.39 1.39 0 0 0-1.036-.426c-.406 0-.753.132-1.035.425-.293.282-.425.63-.425 1.036 0 .402.132.742.425 1.035.282.28.63.425 1.035.425.407 0 .743-.144 1.036-.425a1.44 1.44 0 0 0 .425-1.035q-.002-.612-.425-1.036" style="stroke:none;fill-rule:evenodd;fill:#ee8737;fill-opacity:1"/><path d="M184.254 105.05v-3.124h-5.434l-.765-2.328-1.043-.371.539 2.843c.12.598.222 1.114.3 1.563l1.587 1.418zM182.297 106.086c0 .223.078.414.234.562a.73.73 0 0 0 .563.235c.222 0 .418-.067.562-.235a.75.75 0 0 0 .235-.562.77.77 0 0 0-.235-.563.75.75 0 0 0-.562-.238.78.78 0 0 0-.563.238.77.77 0 0 0-.234.563M180.52 106.57a.75.75 0 0 0 .234-.562.77.77 0 0 0-.234-.563.74.74 0 0 0-.563-.238.76.76 0 0 0-.562.238.76.76 0 0 0-.239.563c0 .222.078.414.239.562a.79.79 0 0 0 .562.246.76.76 0 0 0 .563-.246M164.516 87.023c-.36.36-.575.797-.63 1.282-.023.101-.023.215-.023.316 0 .629.215 1.156.653 1.598.449.449.976.664 1.609.664a2.16 2.16 0 0 0 1.598-.664c.066-.059.12-.125.18-.203.324-.395.48-.856.48-1.395 0-.617-.223-1.16-.66-1.598a2.2 2.2 0 0 0-1.598-.664c-.633 0-1.16.227-1.61.664M168.902 93.41l-2.136-2h-2.395l4.7 4.8zM169.902 89.477c-.27.257-.437.562-.527.91a2.3 2.3 0 0 0-.059.496c0 .55.192 1.031.586 1.414a1.93 1.93 0 0 0 1.407.586c.55 0 1.023-.203 1.418-.586.378-.383.582-.863.582-1.414V90.8a1.94 1.94 0 0 0-.582-1.324 1.93 1.93 0 0 0-1.418-.586c-.551 0-1.024.191-1.407.586M167.586 99.066v-3.55l-3.406-3.399v6.95z" style="stroke:none;fill-rule:evenodd;fill:#ee8737;fill-opacity:1"/><path d="M169.61 94.277v3.993l-2.395 2.394h5.734v-3.023zM175.48 99.035a.55.55 0 0 0-.167.403c0 .16.054.292.167.406a.55.55 0 0 0 .407.168q.233 0 .402-.168a.55.55 0 0 0 .172-.406.55.55 0 0 0-.172-.403.55.55 0 0 0-.402-.168.55.55 0 0 0-.407.168M177.48 98.496l-5.273-4.816h-2.293l4.711 4.816z" style="stroke:none;fill-rule:evenodd;fill:#ee8737;fill-opacity:1"/><path d="M149.246 90.77h-1.137v11.324h1.137zM151.191 90.813h-1.136v11.324h1.136zM144.95 91.063h-1.204v9.175c.066.754-.18 1.102-.723 1.035h-12.976c-.516.09-.75-.257-.719-1.035v-9.175h-1.226v9.175c.078 1.203.734 1.797 1.945 1.809h12.976c1.34 0 1.98-.606 1.926-1.809z" style="stroke:none;fill-rule:evenodd;fill:#5d5079;fill-opacity:1"/><path d="M159.578 92.68q-.808 0-1.383.574a1.89 1.89 0 0 0-.574 1.383c0 .55.191 1.011.574 1.394q.575.574 1.383.574c.55 0 1.012-.19 1.395-.574.382-.383.574-.844.574-1.394q0-.81-.574-1.383a1.9 1.9 0 0 0-1.395-.574M160.762 97.023h-2.59l3.871 4 1.348-1.359zM160.105 102.836h-2.46l-3.844 4.004h2.73zM160.805 102.496v-2.113l-3.035-3.047v5.16zM157.34 106.84h3.219l6.78-6.793h-3.44zM175.762 106.883h2.824l-5.399-5.399h-3.644l-5.668 5.399h3.105l4.364-4.406z" style="stroke:none;fill-rule:evenodd;fill:#ee8737;fill-opacity:1"/><path d="M143.023 100.238v-9.175h-1.28v8.14h-10.415v-8.14h-1.281v9.175zM115.07 92.871l-3.937 5.164h10.48l-3.902-5.164Zm.774.719h.992l2.687 3.566h-6.421z" style="stroke:none;fill-rule:evenodd;fill:#5d5079;fill-opacity:1"/><path d="M115.238 91.836h2.27l7.906 10.21h1.453l-8.402-10.984h-4.25l-8.403 10.985h1.473z" style="stroke:none;fill-rule:evenodd;fill:#5d5079;fill-opacity:1"/><path d="M122.074 98.652H110.66l-2.597 3.395h1.273l1.922-2.496h10.074l1.89 2.496h1.407zM89.836 92.871v4.004h11.613c.723.066 1.035-.145.969-.64V94.03c.031-.742-.281-1.136-.969-1.16Zm.941 3.363-.011-2.484 10.671.012.126 2.472z" style="stroke:none;fill-rule:evenodd;fill:#5d5079;fill-opacity:1"/><path d="M102.418 92.008c.484.078.719.36.719.863v4.004l-.336.496.336.414v4.262h1.047v-4.262l-.305-.414.305-.496v-4.004q.118-2.022-2.735-1.898H87.73v11.074h1.06v-10.04z" style="stroke:none;fill-rule:evenodd;fill:#5d5079;fill-opacity:1"/><path d="M102.418 99.203c.012-.933-.316-1.406-.969-1.418H89.836v4.262h.941v-3.172h10.672v3.172h.969zM84.066 92.871c.008-1.234-.902-1.844-2.71-1.808h-13.34v10.984h13.34c1.82.09 2.73-.516 2.71-1.809Zm-2.71-1.035c1.214-.031 1.832.305 1.855 1.035v7.367c.02.754-.598 1.09-1.856 1.035H69.02v-9.437z" style="stroke:none;fill-rule:evenodd;fill:#5d5079;fill-opacity:1"/><path d="M82.254 94.031c.047-.742-.258-1.125-.899-1.16H69.871v7.367h11.484c.665-.023.965-.36.899-1.035Zm-11.527 5.172v-5.398h10.628v5.398zM63.969 91.836v-.773H48.145v10.984h15.824v-.774H49.203v-9.437z" style="stroke:none;fill-rule:evenodd;fill:#5d5079;fill-opacity:1"/><path d="M63.969 93.781v-.91H49.957v3.363h14.012v-.91H50.723v-1.543zM63.969 97.785v-.91H49.957v3.363h14.012v-.812H50.723v-1.64zM42.285 91.063h-.707v4.261H30.863v-4.261h-.855v5.171h12.277zM44.055 91.063h-.903l.024 10.984h.879zM41.578 102.047h.707v-5.172H30.008v5.172h.855v-4.262h10.715zM24.293 91.836v-.773H11.102c-1.774-.09-2.641.527-2.598 1.832v7.343c.078 1.328.945 1.922 2.598 1.809h13.191v-.774H11.102c-1.102.055-1.665-.28-1.684-1.035v-7.367c-.047-.766.527-1.101 1.684-1.035z" style="stroke:none;fill-rule:evenodd;fill:#5d5079;fill-opacity:1"/><path d="M24.293 93.883V92.87H11.102c-.618.035-.91.426-.875 1.16v5.172q-.07 1.034.875 1.035h13.191v-1.035H11.676q-.557.102-.574-.406v-4.184c-.043-.414.113-.66.484-.73zM29.285 91.063h-.808v10.984h.808z" style="stroke:none;fill-rule:evenodd;fill:#5d5079;fill-opacity:1"/><path d="M152.984 102.215c0 .82.676 1.469 1.47 1.469.796 0 1.472-.649 1.472-1.47 0-.823-.676-1.472-1.473-1.472-.89 0-1.469.75-1.469 1.473m.246 0c0-.688.555-1.227 1.223-1.227s1.227.54 1.227 1.227c0 .668-.54 1.222-1.227 1.222a1.22 1.22 0 0 1-1.223-1.222m.536.82h.5v-.644h.02l.343.644h.535l-.398-.676c.14-.03.343-.132.343-.449 0-.297-.21-.515-.57-.515h-.773Zm.5-.972v-.278h.164c.152 0 .164.074.164.133 0 .11-.07.144-.125.144z" style="stroke:none;fill-rule:nonzero;fill:#5d5079;fill-opacity:1"/></svg>